<mxfile host="Electron" modified="2025-03-11T02:12:02.905Z" agent="Mozilla/5.0 (Windows NT 10.0; Win64; x64) AppleWebKit/537.36 (KHTML, like Gecko) draw.io/24.2.5 Chrome/120.0.6099.109 Electron/28.1.0 Safari/537.36" etag="Bw5ANjwLm1VqTcqremSN" version="24.2.5" type="device">
  <diagram name="Page-1" id="ZDWTbA_Sev17Ivu9E_Sn">
    <mxGraphModel dx="1430" dy="825" grid="1" gridSize="10" guides="1" tooltips="1" connect="1" arrows="1" fold="1" page="1" pageScale="1" pageWidth="1600" pageHeight="900" math="0" shadow="0">
      <root>
        <mxCell id="0" />
        <mxCell id="1" parent="0" />
        <mxCell id="lONnJXdfsbPGVHky7eqA-10" style="edgeStyle=orthogonalEdgeStyle;rounded=1;orthogonalLoop=1;jettySize=auto;html=1;exitX=1;exitY=0.5;exitDx=0;exitDy=0;entryX=1;entryY=0.5;entryDx=0;entryDy=0;curved=0;" edge="1" parent="1" source="lONnJXdfsbPGVHky7eqA-2" target="lONnJXdfsbPGVHky7eqA-3">
          <mxGeometry relative="1" as="geometry" />
        </mxCell>
        <mxCell id="lONnJXdfsbPGVHky7eqA-14" style="edgeStyle=orthogonalEdgeStyle;rounded=1;orthogonalLoop=1;jettySize=auto;html=1;exitX=1;exitY=0.5;exitDx=0;exitDy=0;entryX=1;entryY=0.5;entryDx=0;entryDy=0;curved=0;" edge="1" parent="1" source="lONnJXdfsbPGVHky7eqA-2" target="lONnJXdfsbPGVHky7eqA-13">
          <mxGeometry relative="1" as="geometry" />
        </mxCell>
        <mxCell id="lONnJXdfsbPGVHky7eqA-2" value="sensors" style="rounded=1;whiteSpace=wrap;html=1;shadow=1;glass=0;strokeColor=default;align=center;verticalAlign=middle;shadowOffsetX=1;shadowOffsetY=1;shadowBlur=0;shadowOpacity=50;fontFamily=Times New Roman;fontSize=14;fontColor=default;fillColor=default;" vertex="1" parent="1">
          <mxGeometry x="570" y="123" width="160" height="55" as="geometry" />
        </mxCell>
        <mxCell id="lONnJXdfsbPGVHky7eqA-8" style="edgeStyle=orthogonalEdgeStyle;rounded=1;orthogonalLoop=1;jettySize=auto;html=1;exitX=1;exitY=0.5;exitDx=0;exitDy=0;entryX=0;entryY=0.5;entryDx=0;entryDy=0;curved=0;" edge="1" parent="1" source="PxuOgjv0J5OH4InLxQA7-1" target="lONnJXdfsbPGVHky7eqA-1">
          <mxGeometry relative="1" as="geometry" />
        </mxCell>
        <mxCell id="PxuOgjv0J5OH4InLxQA7-1" value="mpc controller" style="rounded=1;whiteSpace=wrap;html=1;shadow=1;glass=0;shadowOpacity=50;shadowBlur=0;shadowOffsetX=1;shadowOffsetY=1;fontFamily=Times New Roman;fontSize=14;" parent="1" vertex="1">
          <mxGeometry x="290" y="40" width="160" height="60" as="geometry" />
        </mxCell>
        <mxCell id="lONnJXdfsbPGVHky7eqA-1" value="actuators" style="rounded=1;whiteSpace=wrap;html=1;shadow=1;glass=0;strokeColor=default;align=center;verticalAlign=middle;shadowOffsetX=1;shadowOffsetY=1;shadowBlur=0;shadowOpacity=50;fontFamily=Times New Roman;fontSize=14;fontColor=default;fillColor=default;" vertex="1" parent="1">
          <mxGeometry x="560" y="83" width="160" height="55" as="geometry" />
        </mxCell>
        <mxCell id="lONnJXdfsbPGVHky7eqA-11" style="edgeStyle=orthogonalEdgeStyle;rounded=1;orthogonalLoop=1;jettySize=auto;html=1;exitX=0;exitY=0.5;exitDx=0;exitDy=0;entryX=0.25;entryY=1;entryDx=0;entryDy=0;curved=0;" edge="1" parent="1" source="lONnJXdfsbPGVHky7eqA-3" target="lONnJXdfsbPGVHky7eqA-5">
          <mxGeometry relative="1" as="geometry" />
        </mxCell>
        <mxCell id="lONnJXdfsbPGVHky7eqA-12" style="edgeStyle=orthogonalEdgeStyle;rounded=1;orthogonalLoop=1;jettySize=auto;html=1;exitX=0;exitY=0.5;exitDx=0;exitDy=0;entryX=0.25;entryY=1;entryDx=0;entryDy=0;curved=0;dashed=1;" edge="1" parent="1" source="lONnJXdfsbPGVHky7eqA-3" target="PxuOgjv0J5OH4InLxQA7-1">
          <mxGeometry relative="1" as="geometry">
            <Array as="points">
              <mxPoint x="240" y="248" />
              <mxPoint x="240" y="170" />
              <mxPoint x="330" y="170" />
            </Array>
          </mxGeometry>
        </mxCell>
        <mxCell id="lONnJXdfsbPGVHky7eqA-3" value="model fitting" style="rounded=1;whiteSpace=wrap;html=1;shadow=1;glass=0;strokeColor=default;align=center;verticalAlign=middle;shadowOffsetX=1;shadowOffsetY=1;shadowBlur=0;shadowOpacity=50;fontFamily=Times New Roman;fontSize=14;fontColor=default;fillColor=default;fontStyle=2" vertex="1" parent="1">
          <mxGeometry x="260" y="220" width="160" height="55" as="geometry" />
        </mxCell>
        <mxCell id="lONnJXdfsbPGVHky7eqA-6" style="edgeStyle=orthogonalEdgeStyle;rounded=1;orthogonalLoop=1;jettySize=auto;html=1;exitX=1;exitY=0.5;exitDx=0;exitDy=0;curved=0;" edge="1" parent="1" source="lONnJXdfsbPGVHky7eqA-4" target="PxuOgjv0J5OH4InLxQA7-1">
          <mxGeometry relative="1" as="geometry" />
        </mxCell>
        <mxCell id="lONnJXdfsbPGVHky7eqA-7" style="edgeStyle=orthogonalEdgeStyle;rounded=1;orthogonalLoop=1;jettySize=auto;html=1;exitX=1;exitY=0.5;exitDx=0;exitDy=0;entryX=0;entryY=0.5;entryDx=0;entryDy=0;curved=0;dashed=1;" edge="1" parent="1" source="lONnJXdfsbPGVHky7eqA-4" target="lONnJXdfsbPGVHky7eqA-5">
          <mxGeometry relative="1" as="geometry" />
        </mxCell>
        <mxCell id="lONnJXdfsbPGVHky7eqA-4" value="target trajectories,&lt;div style=&quot;font-size: 14px;&quot;&gt;global process state&lt;/div&gt;" style="rounded=1;whiteSpace=wrap;html=1;shadow=1;glass=0;shadowOpacity=50;shadowBlur=0;shadowOffsetX=1;shadowOffsetY=1;fontFamily=Times New Roman;fontSize=14;" vertex="1" parent="1">
          <mxGeometry x="40" y="80" width="160" height="60" as="geometry" />
        </mxCell>
        <mxCell id="lONnJXdfsbPGVHky7eqA-9" style="edgeStyle=orthogonalEdgeStyle;rounded=1;orthogonalLoop=1;jettySize=auto;html=1;exitX=1;exitY=0.5;exitDx=0;exitDy=0;entryX=0;entryY=0.5;entryDx=0;entryDy=0;curved=0;dashed=1;" edge="1" parent="1" source="lONnJXdfsbPGVHky7eqA-5" target="lONnJXdfsbPGVHky7eqA-1">
          <mxGeometry relative="1" as="geometry" />
        </mxCell>
        <mxCell id="lONnJXdfsbPGVHky7eqA-5" value="recompiling controller" style="rounded=1;whiteSpace=wrap;html=1;shadow=1;glass=0;shadowOpacity=50;shadowBlur=0;shadowOffsetX=1;shadowOffsetY=1;fontFamily=Times New Roman;fontSize=14;fillColor=#f5f5f5;fontColor=#333333;strokeColor=#666666;" vertex="1" parent="1">
          <mxGeometry x="290" y="120" width="160" height="60" as="geometry" />
        </mxCell>
        <mxCell id="lONnJXdfsbPGVHky7eqA-13" value="stored history" style="rounded=1;whiteSpace=wrap;html=1;shadow=1;glass=0;strokeColor=default;align=center;verticalAlign=middle;shadowOffsetX=1;shadowOffsetY=1;shadowBlur=0;shadowOpacity=50;fontFamily=Times New Roman;fontSize=14;fontColor=default;fillColor=default;" vertex="1" parent="1">
          <mxGeometry x="40" y="290" width="160" height="55" as="geometry" />
        </mxCell>
      </root>
    </mxGraphModel>
  </diagram>
</mxfile>
